# xmcd
#
# Track frame offsets:
#	183
#	14435
#	31563
#	46443
#	61200
#	79658
#	95515
#	120753
#	130735
#	142630
#	167088
#	180563
#
# Disc length: 2627 seconds
#
# Revision: 1
# Processed by: cddbd v1.4PL0 Copyright (c) Steve Scherf et al.
# Submitted via: audiograbber 1.81.03
#
DISCID=850a410c
DTITLE=Charlie Musselwhite - Mellow Dee
DYEAR=1986
DGENRE=Blues
TTITLE0=Hey, Miss Bessie
TTITLE1=Need My Baby
TTITLE2=I'll Get A Break
TTITLE3=Peach Orchard Mama
TTITLE4=Ask Me Nice
TTITLE5=Come Back Baby
TTITLE6=Coming Home, Baby
TTITLE7=Baby, Please Don't Go
TTITLE8=Lotsa Poppa
TTITLE9=Steady On Your Trial
TTITLE10=Can't You See What Your'e Doing To Me
TTITLE11=Christo Redemptor (Slight Return)
EXTD=
EXTT0=
EXTT1=
EXTT2=
EXTT3=
EXTT4=
EXTT5=
EXTT6=
EXTT7=
EXTT8=
EXTT9=
EXTT10=
EXTT11=
PLAYORDER=
